# xmcd
#
# Track frame offsets: 
#        183
#        12560
#        23623
#        34903
#        48090
#        59595
#        69503
#        81523
#        99605
#        111538
#        126323
#        140035
#        154963
#        164603
#        173790
#        183590
#        193703
#        204985
#        215433
#        225348
#        237398
#        248975
#        258705
#        272413
#        282928
#        293403
#
# Disc length: 4051 seconds
#
# Revision: 0
# Processed by: cddbd v1.4PL0 Copyright (c) Steve Scherf et al.
# Submitted via: ExactAudioCopy v0.90b4
#
DISCID=8b0fd11a
DTITLE=Don Bryant - Doin' the mustang
DYEAR=1991
DGENRE=Soul
TTITLE0=She's looking good
TTITLE1=You're a wonderfull one
TTITLE2=Funky broadway
TTITLE3=Can I change my mind
TTITLE4=Soul man
TTITLE5=Land of 1000 dances
TTITLE6=Slip away
TTITLE7=For your precious love
TTITLE8=Expressway to your heart
TTITLE9=Try me
TTITLE10=When something is wrong with my baby
TTITLE11=Cry baby
TTITLE12=Run to me
TTITLE13=You cause me to wonder
TTITLE14=That ain't right woman
TTITLE15=It ain't easy
TTITLE16=Walkie talkie love
TTITLE17=I can't go on (suffering like this)
TTITLE18=Please don't leave
TTITLE19=I stuck by you
TTITLE20=Doin' the mustang
TTITLE21=That drivin' beat
TTITLE22=Clear days and stormy nights
TTITLE23=Everytime I think about you I get the blues
TTITLE24=Hurt no longer
TTITLE25=Love's gonna live here again
EXTD=
EXTT0=
EXTT1=
EXTT2=
EXTT3=
EXTT4=
EXTT5=
EXTT6=
EXTT7=
EXTT8=
EXTT9=
EXTT10=
EXTT11=
EXTT12=
EXTT13=
EXTT14=
EXTT15=
EXTT16=
EXTT17=
EXTT18=
EXTT19=
EXTT20=
EXTT21=
EXTT22=
EXTT23=
EXTT24=
EXTT25=
PLAYORDER=
